<svg width="21" height="21" viewBox="0 0 21 21" fill="none" xmlns="http://www.w3.org/2000/svg">
<path d="M8.95109 6.3799C8.75224 6.57151 8.74636 6.88803 8.93796 7.08689C9.12957 7.28574 9.44609 7.29162 9.64495 7.10001L8.95109 6.3799ZM12.401 6.8321L11.9134 6.94273L11.9134 6.94277L12.401 6.8321ZM10.6073 10.6484L10.1076 10.6319L10.1076 10.6322L10.6073 10.6484ZM10.1074 11.9675C10.1122 12.2436 10.34 12.4635 10.6161 12.4587C10.8922 12.4539 11.1121 12.2261 11.1072 11.95L10.1074 11.9675ZM19.5945 10.5006C19.5945 15.5234 15.5226 19.5952 10.4996 19.5952V20.5952C16.0749 20.5952 20.5945 16.0757 20.5945 10.5006H19.5945ZM10.4996 19.5952C5.47668 19.5952 1.40479 15.5234 1.40479 10.5006H0.404785C0.404785 16.0757 4.92442 20.5952 10.4996 20.5952V19.5952ZM1.40479 10.5006C1.40479 5.47775 5.47668 1.40594 10.4996 1.40594V0.405945C4.92442 0.405945 0.404785 4.92544 0.404785 10.5006H1.40479ZM10.4996 1.40594C15.5226 1.40594 19.5945 5.47775 19.5945 10.5006H20.5945C20.5945 4.92544 16.0749 0.405945 10.4996 0.405945V1.40594ZM9.29802 6.73996C9.64495 7.10001 9.64484 7.10011 9.64475 7.1002C9.64473 7.10022 9.64465 7.1003 9.64462 7.10033C9.64454 7.1004 9.64451 7.10044 9.64451 7.10043C9.64451 7.10043 9.64467 7.10028 9.64497 7.1C9.64557 7.09943 9.64675 7.0983 9.64851 7.09664C9.65202 7.09332 9.65781 7.0879 9.66573 7.08058C9.68159 7.06594 9.70593 7.0438 9.73768 7.01593C9.80134 6.96004 9.89386 6.8819 10.0067 6.79527C10.2369 6.61846 10.5317 6.42194 10.8265 6.2992C11.134 6.17116 11.3517 6.16022 11.4883 6.21493C11.5955 6.25783 11.7899 6.39826 11.9134 6.94273L12.8886 6.72147C12.7253 6.00137 12.3883 5.498 11.8599 5.28652C11.361 5.08684 10.8387 5.21093 10.4422 5.37601C10.033 5.54637 9.65955 5.80103 9.39766 6.00212C9.2644 6.10444 9.15484 6.19693 9.07795 6.26443C9.03942 6.29826 9.00886 6.32601 8.98739 6.34583C8.97665 6.35575 8.96816 6.3637 8.96207 6.36945C8.95902 6.37233 8.95658 6.37465 8.95474 6.37641C8.95382 6.37728 8.95306 6.37801 8.95245 6.3786C8.95214 6.37889 8.95188 6.37914 8.95165 6.37936C8.95154 6.37947 8.9514 6.37961 8.95134 6.37966C8.95121 6.37979 8.95109 6.3799 9.29802 6.73996ZM11.9134 6.94277C12.0014 7.33052 11.9505 7.55649 11.8685 7.71966C11.7737 7.90811 11.612 8.06957 11.3585 8.29967C10.8639 8.74858 10.1502 9.3466 10.1076 10.6319L11.107 10.665C11.1345 9.83491 11.5364 9.48864 12.0306 9.04016C12.2714 8.82157 12.5723 8.54606 12.762 8.16874C12.9643 7.76614 13.0194 7.29755 12.8886 6.72143L11.9134 6.94277ZM10.1076 10.6322C10.0998 10.8728 10.0999 11.2091 10.1017 11.4794C10.1027 11.6158 10.1041 11.7376 10.1053 11.8254C10.1058 11.8693 10.1064 11.9047 10.1068 11.9292C10.107 11.9414 10.1071 11.9509 10.1072 11.9574C10.1073 11.9607 10.1073 11.9632 10.1073 11.9649C10.1074 11.9657 10.1074 11.9664 10.1074 11.9668C10.1074 11.967 10.1074 11.9672 10.1074 11.9673C10.1074 11.9674 10.1074 11.9674 10.1074 11.9675C10.1074 11.9675 10.1074 11.9675 10.1074 11.9675C10.1074 11.9675 10.1074 11.9675 10.6073 11.9588C11.1072 11.95 11.1072 11.95 11.1072 11.95C11.1072 11.95 11.1072 11.95 11.1072 11.95C11.1072 11.95 11.1072 11.95 11.1072 11.9499C11.1072 11.9498 11.1072 11.9497 11.1072 11.9495C11.1072 11.9491 11.1072 11.9486 11.1072 11.9478C11.1072 11.9462 11.1071 11.9439 11.1071 11.9408C11.107 11.9346 11.1068 11.9254 11.1066 11.9135C11.1063 11.8897 11.1057 11.855 11.1052 11.812C11.104 11.7258 11.1026 11.6062 11.1017 11.4725C11.0999 11.2026 11.0999 10.8837 11.107 10.6646L10.1076 10.6322ZM10.9719 14.9064C10.9719 15.0571 10.8497 15.1794 10.6989 15.1794V16.1794C11.402 16.1794 11.9719 15.6094 11.9719 14.9064H10.9719ZM10.6989 15.1794C10.5482 15.1794 10.4259 15.0571 10.4259 14.9064H9.42595C9.42595 15.6094 9.9959 16.1794 10.6989 16.1794V15.1794ZM10.4259 14.9064C10.4259 14.7556 10.5482 14.6334 10.6989 14.6334V13.6334C9.9959 13.6334 9.42595 14.2033 9.42595 14.9064H10.4259ZM10.6989 14.6334C10.8497 14.6334 10.9719 14.7556 10.9719 14.9064H11.9719C11.9719 14.2033 11.402 13.6334 10.6989 13.6334V14.6334Z" fill="#999A9B"/>
</svg>
