<svg width="27" height="27" viewBox="0 0 27 27" fill="none" xmlns="http://www.w3.org/2000/svg">
<path d="M13.4989 27.0007C6.04398 27.0007 0 20.9555 0 13.4993C0 6.04382 6.04398 0 13.4989 0C20.956 0 26.9993 6.04453 26.9993 13.4993C27 20.9569 20.9546 27.0007 13.4989 27.0007Z" fill="#6DC8CE"/>
<path fill-rule="evenodd" clip-rule="evenodd" d="M17.402 10.5299C16.8565 10.4483 16.3124 10.422 15.769 10.5441C15.5675 10.6065 15.3689 10.6774 15.1646 10.7292C14.8482 10.8101 14.5552 11.2662 14.2913 11.0463C14.1189 10.9016 14.2438 10.41 14.2204 10.0752C14.1629 9.24521 14.3552 8.40318 14.1104 7.58103C13.7586 7.34055 13.3705 7.41645 12.9825 7.43986C12.7264 7.45476 12.6803 7.5945 12.6817 7.81299C12.6995 10.0631 12.7129 12.3132 12.7271 14.5633C12.7796 14.8024 13.008 14.8577 13.1691 14.9805C13.4358 15.1826 13.7373 15.5189 14.043 15.3919C14.4112 15.2401 14.2041 14.7861 14.214 14.4683C14.2729 12.5956 16.2492 11.418 17.8383 12.3373C19.2592 13.1588 19.4791 15.133 18.7732 16.2899C18.1646 17.2873 17.0991 17.6917 16.0825 17.6399C15.3043 17.6002 14.4545 17.2299 13.7217 16.7574C12.7441 16.1268 11.7985 15.4515 10.9033 14.7166C9.84133 13.8448 8.62048 13.8859 7.41168 14.0498C6.20076 14.2136 5.4481 15.0947 4.84015 16.092C4.84015 16.3034 4.84015 16.5148 4.84015 16.7262C5.2899 16.9071 5.75668 16.7901 6.21494 16.8014C6.39584 16.8057 6.50721 16.668 6.6122 16.5233C7.50532 15.2947 8.39489 15.0805 9.67747 15.8771C10.5876 16.4418 11.4382 17.1036 12.3164 17.7207C13.5663 18.5989 14.9127 19.1764 16.4805 19.1253C18.7406 19.0508 20.4807 17.5157 20.69 15.294C20.9064 13.0056 19.6053 10.9271 17.402 10.5299Z" fill="white"/>
</svg>
