<svg width="18" height="22" viewBox="0 0 18 22" fill="none" xmlns="http://www.w3.org/2000/svg">
<path d="M8.67533 14.9679C11.7841 14.9679 14.3043 12.4478 14.3043 9.33898C14.3043 6.2302 11.7841 3.71004 8.67533 3.71004C5.56655 3.71004 3.04639 6.2302 3.04639 9.33898C3.04639 12.4478 5.56655 14.9679 8.67533 14.9679Z" stroke="#999A9B" stroke-miterlimit="10" stroke-linecap="round"/>
<path d="M8.67554 17.3624C13.1401 17.3624 16.7593 13.7432 16.7593 9.27863C16.7593 4.8141 13.1401 1.19489 8.67554 1.19489C4.21101 1.19489 0.591797 4.8141 0.591797 9.27863C0.591797 13.7432 4.21101 17.3624 8.67554 17.3624Z" stroke="#999A9B" stroke-miterlimit="10" stroke-linecap="round"/>
<path d="M11.5084 9.75722C11.5084 8.19278 10.24 6.92514 8.67631 6.92514C7.1126 6.92514 5.84424 8.1935 5.84424 9.75722C5.84424 10.8675 6.48884 11.8182 7.41873 12.2832V19.5793C7.41873 20.2742 7.98141 20.8369 8.67631 20.8369C9.37122 20.8369 9.9339 20.2742 9.9339 19.5793V12.2824C10.8631 11.8182 11.5084 10.8668 11.5084 9.75722Z" fill="white" stroke="#999A9B" stroke-miterlimit="10" stroke-linecap="round"/>
</svg>
