<svg width="12" height="20" viewBox="0 0 12 20" fill="none" xmlns="http://www.w3.org/2000/svg">
<path d="M10.1977 11.9079C10.7951 13.0624 12.0579 17.7999 10.9039 18.3973L10.5676 18.5707C9.41315 19.1682 6.27766 15.3975 5.68072 14.2431M10.1977 11.9079L5.4059 2.63831C4.80844 1.48388 3.38914 1.03199 2.2352 1.62891L1.8989 1.80284C0.74496 2.39923 0.292528 3.81849 0.888939 4.97293L5.68072 14.2431M10.1977 11.9079C10.1977 11.9079 9.3811 13.2657 8.32017 13.8127C7.26082 14.3608 5.68072 14.2431 5.68072 14.2431M1.22209 5.61819C1.22209 5.61819 2.90675 6.61603 4.24303 5.92558C5.57931 5.2346 5.73957 3.28305 5.73957 3.28305" stroke="white" stroke-miterlimit="10" stroke-linecap="round" stroke-linejoin="round"/>
</svg>
