<svg width="104" height="89" viewBox="0 0 104 89" fill="none" xmlns="http://www.w3.org/2000/svg">
<path fill-rule="evenodd" clip-rule="evenodd" d="M49.7334 29.06C49.7334 28.4184 49.7319 27.7776 49.7348 27.1361C49.7356 26.9685 49.6157 26.8824 49.5165 26.7823C48.9398 26.2016 48.3566 25.6283 47.7881 25.0394C47.6334 24.8792 47.4698 24.8273 47.2559 24.8288C46.3809 24.8369 45.5045 24.7991 44.6318 24.8436C44.0944 24.871 43.6828 24.7309 43.3668 24.2985C43.2076 24.0804 43.0159 24.0315 42.7346 24.0804C42.118 24.1887 41.6088 23.7467 41.5954 23.1496C41.5829 22.5786 42.0914 22.0764 42.634 22.1239C43.2276 22.1766 43.6295 22.7032 43.5407 23.3121C43.4896 23.6599 43.9168 24.271 44.2647 24.294C44.6873 24.3222 45.1129 24.3007 45.5719 24.3007C45.5097 24.0745 45.3483 23.9914 45.244 23.8653C45.127 23.7259 45.09 23.582 45.2351 23.4485C45.3616 23.3321 45.4971 23.3632 45.6178 23.476C45.6385 23.496 45.6629 23.5131 45.6792 23.536C46.1344 24.182 46.7473 24.4424 47.5275 24.3052C47.754 24.2651 47.8991 24.4045 48.0442 24.5529C48.572 25.0943 49.1049 25.6305 49.7311 26.2646C49.7311 25.4065 49.7341 24.6827 49.7289 23.9588C49.7282 23.7971 49.5838 23.7178 49.4854 23.6184C48.72 22.8411 47.9509 22.0668 47.1833 21.2918C47.113 21.2206 47.0397 21.1516 46.9731 21.0759C46.8591 20.9476 46.791 20.7978 46.925 20.6539C47.0826 20.4841 47.2351 20.5716 47.3684 20.7066C48.0242 21.3704 48.6815 22.0319 49.3329 22.7002C49.4313 22.8018 49.4994 22.9331 49.5809 23.051C49.6312 23.028 49.6815 23.005 49.7319 22.982C49.7319 22.5051 49.7356 22.029 49.7304 21.5528C49.7282 21.3704 49.5446 21.3526 49.4373 21.268C49.0553 20.9625 48.928 20.5449 49.0953 20.1222C49.2633 19.6957 49.6364 19.4472 50.0627 19.4784C50.5017 19.5103 50.8733 19.824 50.9725 20.2705C51.0724 20.7199 50.8748 21.0589 50.5165 21.3007C50.3722 21.3986 50.2833 21.4839 50.2848 21.67C50.2915 22.5452 50.2878 23.4203 50.2878 24.4179C50.7393 23.9714 51.1309 23.6124 51.4891 23.2216C51.7415 22.9464 52.0125 22.8196 52.3929 22.8404C52.9363 22.8708 53.4825 22.8522 54.0273 22.8456C54.4929 22.8404 54.7313 22.5385 54.6484 22.0772C54.5751 21.67 54.7949 21.2287 55.1695 21.0292C55.5529 20.826 55.963 20.8787 56.2842 21.1724C56.6107 21.4727 56.7062 21.9281 56.5218 22.3123C56.3331 22.7069 55.9252 22.9687 55.5063 22.8685C55.1872 22.7922 54.9763 22.8619 54.8075 23.1111C54.5929 23.4278 54.2664 23.381 53.9163 23.3833C54.0377 23.6792 54.2982 23.8164 54.4715 24.0255C54.6106 24.1924 54.8971 24.3534 54.6432 24.5885C54.4085 24.8065 54.2316 24.5477 54.0732 24.3934C53.7956 24.1227 53.5314 23.8386 53.2538 23.5687C52.9733 23.2965 52.1938 23.2891 51.9155 23.562C51.4233 24.0441 50.9421 24.5373 50.4543 25.0238C50.3603 25.1173 50.2833 25.2144 50.2833 25.3568C50.2848 26.057 50.2841 26.7578 50.2841 27.5915C50.6246 27.2511 50.8962 27.0063 51.1353 26.7341C51.3618 26.4768 51.6165 26.3766 51.9621 26.3818C53.3959 26.4011 54.8305 26.3885 56.2643 26.4033C56.5611 26.407 56.7883 26.3277 56.9837 26.1059C57.154 25.9123 57.3427 25.7343 57.5293 25.5556C57.8091 25.2879 58.0363 25.0498 57.9438 24.5729C57.8416 24.0493 58.3472 23.5791 58.8839 23.565C59.3954 23.5509 59.8469 23.9707 59.8832 24.4958C59.9194 25.009 59.4968 25.6008 59.0097 25.5163C58.2562 25.3865 57.9964 25.9316 57.4886 26.3892C57.7972 26.3892 58.0015 26.3892 58.2073 26.3892C58.795 26.3892 59.3835 26.3774 59.9712 26.3952C60.1977 26.4018 60.5701 26.2602 60.5627 26.6718C60.5553 27.036 60.2089 26.9269 59.989 26.9284C58.4116 26.9358 56.8335 26.9321 55.2553 26.9321C55.1162 26.9321 54.9778 26.9321 54.7061 26.9321C54.9674 27.1969 55.1399 27.3757 55.316 27.5514C55.4537 27.6894 55.53 27.8503 55.3649 27.9987C55.228 28.1225 55.0703 28.0647 54.9459 27.9364C54.9156 27.9052 54.8764 27.8807 54.8549 27.8444C54.1132 26.6281 52.914 26.9529 51.8171 26.9418C51.7534 26.9418 51.6853 26.9885 51.6268 27.0263C51.5794 27.056 51.5484 27.1109 51.5025 27.1443C50.5135 27.8533 50.2049 28.7796 50.253 30.0167C50.3566 32.6563 50.2863 35.3033 50.2811 37.9466C50.2811 38.1009 50.3736 38.3212 50.1338 38.3857C49.8444 38.4628 49.7326 38.3449 49.7334 38.0304C49.7445 35.8462 49.6808 33.6598 49.7637 31.4793C49.8051 30.3987 49.5764 29.5628 48.6845 28.9205C48.3625 28.6884 48.1034 28.3665 47.8288 28.0728C47.5727 27.7984 47.3521 27.5848 46.8924 27.6708C46.3321 27.7754 45.868 27.2703 45.8783 26.7067C45.8887 26.1578 46.3358 25.7292 46.8828 25.7432C47.4476 25.7581 47.9332 26.235 47.8317 26.786C47.7577 27.188 47.9265 27.3935 48.1708 27.6323C48.663 28.1129 49.1367 28.6128 49.6179 29.1037C49.6556 29.0889 49.6949 29.0748 49.7334 29.06Z" fill="white"/>
<path fill-rule="evenodd" clip-rule="evenodd" d="M44.6704 32.4583C44.5239 32.3025 44.3869 32.3522 44.2663 32.3522C43.1767 32.347 42.0871 32.3537 40.9975 32.3448C40.751 32.3426 40.5807 32.3856 40.432 32.6229C40.1855 33.019 39.7228 33.1414 39.298 32.9923C38.9145 32.8573 38.6399 32.4731 38.6392 32.0711C38.6384 31.6729 38.9204 31.2731 39.2935 31.1433C39.7221 30.9942 40.1766 31.1159 40.4305 31.5097C40.5704 31.727 40.7251 31.7774 40.9583 31.7752C41.8435 31.7663 42.7296 31.7715 43.6149 31.7715C43.6497 31.7233 43.6852 31.6751 43.72 31.6261C43.3921 31.3384 43.0634 31.0506 42.737 30.7614C42.5986 30.6382 42.4846 30.4907 42.6378 30.3201C42.811 30.128 42.9709 30.2481 43.1138 30.3898C43.5009 30.7732 43.8962 31.1493 44.2744 31.5416C44.4461 31.7189 44.6275 31.8086 44.8784 31.8004C45.7948 31.7693 46.7127 31.7411 47.6291 31.7945C47.8252 31.8064 47.8978 31.7426 47.9163 31.532C47.9681 30.9319 47.7904 30.4936 47.3715 30.0093C46.5987 29.1156 45.746 28.7433 44.5698 28.8723C43.6489 28.9732 42.7081 28.8849 41.7769 28.8961C41.5297 28.899 41.338 28.8434 41.1722 28.6513C40.9945 28.4451 40.7843 28.2679 40.6007 28.0669C40.3461 27.7873 40.1129 27.59 39.6592 27.6701C39.0951 27.7695 38.6281 27.2644 38.6406 26.7067C38.6517 26.1719 39.1166 25.7262 39.6496 25.7381C40.2203 25.7507 40.6859 26.2142 40.5896 26.7845C40.523 27.1769 40.6977 27.366 40.9072 27.6323C41.3772 28.2271 41.9398 28.4741 42.6941 28.371C43.0841 28.3176 43.4883 28.3613 43.9206 28.3613C43.8747 28.1359 43.7059 28.0565 43.606 27.9304C43.5075 27.8066 43.452 27.6753 43.5742 27.5448C43.7081 27.4024 43.8554 27.435 43.9924 27.5551C44.0139 27.5737 44.0405 27.59 44.0546 27.6137C44.5135 28.3547 45.2211 28.4481 45.9961 28.3613C46.3085 28.3265 46.5372 28.4488 46.7519 28.6751C47.2256 29.1742 47.7164 29.6585 48.2101 30.1384C48.3774 30.3008 48.4485 30.4758 48.4477 30.7087C48.4425 33.1503 48.4448 35.5926 48.4462 38.0341C48.4462 38.2285 48.464 38.405 48.1724 38.4013C47.8681 38.3968 47.9163 38.1973 47.9155 38.0171C47.914 36.2645 47.9081 34.512 47.9214 32.7602C47.9237 32.4494 47.8548 32.2988 47.5195 32.3426C47.3648 32.3626 47.2012 32.3671 47.0472 32.3426C46.0139 32.1772 45.2019 32.4924 44.5453 33.3357C44.3255 33.6183 44.2692 33.8393 44.2996 34.1664C44.3462 34.6722 43.9902 35.089 43.4987 35.1795C43.0516 35.2618 42.5504 34.9614 42.4098 34.5268C42.2499 34.0314 42.4735 33.5159 42.942 33.2986C43.0619 33.243 43.1915 33.1888 43.3151 33.2237C44.0494 33.4366 44.2522 32.7883 44.6704 32.4583Z" fill="white"/>
<path fill-rule="evenodd" clip-rule="evenodd" d="M55.2496 32.5154C55.5197 32.7468 55.7959 32.97 56.0564 33.2111C56.1778 33.3238 56.2822 33.2704 56.4095 33.2452C56.9173 33.1458 57.3192 33.329 57.5376 33.7414C57.7374 34.1174 57.6656 34.5928 57.3651 34.8947C57.0513 35.2084 56.5975 35.2796 56.2178 35.0741C55.8107 34.8546 55.6145 34.4371 55.7314 33.9438C55.7796 33.7429 55.7433 33.6138 55.5923 33.4966C55.5804 33.4877 55.5723 33.4766 55.5619 33.4662C54.3791 32.2506 54.1237 32.1683 52.3546 32.3389C52.0541 32.3678 52.1037 32.5503 52.1037 32.7275C52.1014 34.1204 52.1022 35.514 52.1014 36.9068C52.1014 37.2658 52.1074 37.6247 52.0992 37.9844C52.0955 38.1676 52.1806 38.4027 51.8401 38.4065C51.51 38.4102 51.5655 38.1929 51.5655 37.9971C51.567 36.0583 51.57 34.1189 51.5722 32.1809C51.5722 31.6781 51.5766 31.1759 51.5692 30.6731C51.5655 30.4565 51.664 30.3082 51.7906 30.1391C52.4249 29.2914 53.2177 28.9183 54.3014 29.0615C55.0201 29.1564 55.7603 29.0756 56.4916 29.0822C56.6767 29.0837 56.7951 29.0488 56.9017 28.8634C57.1393 28.4488 57.5923 28.276 57.9995 28.3888C58.4243 28.506 58.7367 28.9087 58.7397 29.3403C58.7412 29.7801 58.4503 30.1665 58.015 30.3008C57.6086 30.4261 57.1667 30.2667 56.9114 29.8499C56.7937 29.6592 56.6663 29.6103 56.4613 29.6118C55.5449 29.6199 54.6263 29.6377 53.7099 29.6066C53.2747 29.5917 52.9845 29.746 52.6529 30.0234C52.1607 30.4358 52.0459 30.9104 52.0963 31.4978C52.1133 31.6988 52.1703 31.7722 52.3724 31.7722C54.6367 31.7685 56.9025 31.7685 59.166 31.773C59.3496 31.773 59.4421 31.6877 59.5428 31.5483C59.8485 31.124 60.2675 30.9883 60.7027 31.1448C61.1061 31.2902 61.36 31.6469 61.3578 32.0645C61.3563 32.4932 61.0721 32.8825 60.6694 33.0071C60.2356 33.1421 59.8204 32.9886 59.5213 32.5577C59.4318 32.4286 59.3511 32.3456 59.1831 32.3463C57.9106 32.3507 56.6382 32.3485 55.3665 32.3485C55.3265 32.4049 55.2888 32.4605 55.2496 32.5154Z" fill="white"/>
<path d="M45.9056 86.9723L58.2924 71.4529L76.6326 79.0187L66.4643 39.5761L35.7358 47.529L45.9056 86.9723Z" fill="#16799C"/>
<path d="M61.1171 85.7975L46.5031 72.3629L29.5366 82.655L33.5552 42.1163L65.1365 45.2587L61.1171 85.7975Z" fill="#2AA7DF"/>
<path d="M51.7889 56.94C66.5608 56.94 78.5357 44.9415 78.5357 30.1406C78.5357 15.3397 66.5608 3.34122 51.7889 3.34122C37.017 3.34122 25.042 15.3397 25.042 30.1406C25.042 44.9415 37.017 56.94 51.7889 56.94Z" fill="#FEBC29"/>
<path d="M51.789 52.3505C64.0312 52.3505 73.9554 42.4068 73.9554 30.1406C73.9554 17.8744 64.0312 7.93063 51.789 7.93063C39.5468 7.93063 29.6226 17.8744 29.6226 30.1406C29.6226 42.4068 39.5468 52.3505 51.789 52.3505Z" fill="#FCB035"/>
<path d="M51.7892 54.9315C65.4541 54.9315 76.5316 43.8323 76.5316 30.1406C76.5316 16.4489 65.4541 5.34964 51.7892 5.34964C38.1244 5.34964 27.0469 16.4489 27.0469 30.1406C27.0469 43.8323 38.1244 54.9315 51.7892 54.9315Z" stroke="white" stroke-miterlimit="10"/>
<path d="M80.5879 38.534C88.4956 41.5378 96.2908 47.8316 101.682 55.2215" stroke="#2AA7DF" stroke-miterlimit="10"/>
<path d="M81.6982 24.0723C86.1625 24.5566 90.8961 25.7462 95.0213 27.4098" stroke="#2AA7DF" stroke-miterlimit="10"/>
<path d="M79.4775 7.38553C81.3281 7.38553 83.1786 7.38553 85.0291 7.38553" stroke="#2AA7DF" stroke-miterlimit="10"/>
<path d="M23.9642 12.948C22.4838 12.948 21.0034 12.948 19.5229 12.948" stroke="#2AA7DF" stroke-miterlimit="10"/>
<path d="M16.1922 27.4098C11.389 31.4689 6.85445 36.0124 2.86914 40.759" stroke="#2AA7DF" stroke-miterlimit="10"/>
<path d="M20.6336 49.6583C15.4521 56.489 10.4283 64.2306 6.2002 71.9068" stroke="#2AA7DF" stroke-miterlimit="10"/>
</svg>
