<svg width="17" height="17" viewBox="0 0 17 17" fill="none" xmlns="http://www.w3.org/2000/svg">
<path d="M5.70089 11.5273L1.58266 15.5914M6.02421 13.6934L3.64177 16.0455M3.46025 10.9392L1.07726 13.2912M2.47538 5.99955L14.8505 0.927485C14.8505 0.927485 16.4754 0.468444 15.4188 2.4453C14.3622 4.42215 10.0542 15.5577 10.0542 15.5577C10.0542 15.5577 9.56697 16.126 9.07868 15.1511C8.59093 14.1751 7.20881 10.0305 7.20881 10.0305C7.20881 10.0305 3.79461 8.5949 2.73857 8.18937C1.68197 7.78275 0.950357 7.53888 0.950357 7.53888C0.950357 7.53888 0.408542 7.02467 1.22126 6.67266C2.03399 6.32066 2.47538 5.99955 2.47538 5.99955Z" stroke="#999A9B" stroke-miterlimit="10" stroke-linecap="round"/>
</svg>
