<svg width="20" height="23" viewBox="0 0 20 23" fill="none" xmlns="http://www.w3.org/2000/svg">
<path d="M9 0.5H17C18.3807 0.5 19.5 1.61929 19.5 3V13C19.5 14.3807 18.3807 15.5 17 15.5H16.5V6C16.5 4.067 14.933 2.5 13 2.5H6.55001C6.78164 1.35888 7.79052 0.5 9 0.5ZM15.5 6V15.5H9C7.61929 15.5 6.5 14.3807 6.5 13V3.5H13C14.3807 3.5 15.5 4.61929 15.5 6ZM5.5 3.5V13C5.5 14.933 7.067 16.5 9 16.5H15.5V20C15.5 21.3807 14.3807 22.5 13 22.5H3C1.61929 22.5 0.5 21.3807 0.5 20V6C0.5 4.61929 1.61929 3.5 3 3.5H5.5Z" fill="white" stroke="black"/>
</svg>
