<svg width="12" height="14" viewBox="0 0 12 14" fill="none" xmlns="http://www.w3.org/2000/svg">
<path d="M5.24969 10.8577C5.00085 11.1711 1.86831 13.6768 1.16633 13.1192C0.464864 12.5622 2.19344 8.94332 2.44228 8.62895L8.06426 1.54893C8.56245 0.921206 9.4759 0.816245 10.1031 1.31494L10.6366 1.73837C11.2644 2.23655 11.3693 3.14997 10.8712 3.77718L5.24969 10.8577Z" stroke="#D9D9D8" stroke-miterlimit="10"/>
<path d="M6.22342 3.8678C6.22342 3.8678 5.90494 4.2687 7.30839 5.38334C8.71183 6.49746 9.0298 6.09656 9.0298 6.09656" stroke="#D9D9D8" stroke-miterlimit="10"/>
<path d="M2.72147 8.27875C2.72147 8.27875 2.40299 8.67965 3.80644 9.79429C5.20988 10.9084 5.52836 10.5075 5.52836 10.5075" stroke="#D9D9D8" stroke-miterlimit="10"/>
</svg>
