<svg width="31" height="33" viewBox="0 0 31 33" fill="none" xmlns="http://www.w3.org/2000/svg">
<path d="M29.0991 19.0214C29.0991 22.2668 29.1011 25.5138 29.098 28.7591C29.097 29.7648 28.5606 30.5894 27.7315 30.8883C26.4378 31.3518 25.1126 30.3166 25.1049 28.8236C25.0955 27.2015 25.1028 25.5783 25.1028 23.9551C25.1028 19.0401 25.1017 14.1263 25.1033 9.21138C25.1038 8.20224 25.678 7.36233 26.5428 7.08896C27.8106 6.68599 29.0882 7.70079 29.0939 9.14799C29.1053 12.4386 29.0975 15.7303 29.0975 19.0214H29.0991Z" stroke="#D9D9D8" stroke-width="2" stroke-miterlimit="10"/>
<path d="M13.0982 22.0106C13.0982 24.2835 13.1008 26.5552 13.0972 28.8281C13.0951 29.855 12.4393 30.7379 11.5391 30.9487C10.596 31.1696 9.66277 30.6626 9.27145 29.7122C9.16068 29.4458 9.10064 29.1653 9.10064 28.8714C9.10115 24.2908 9.09805 19.7091 9.10271 15.1284C9.10323 13.9482 9.9987 13.0023 11.0898 13C12.1939 12.9978 13.0909 13.942 13.0956 15.1397C13.1039 17.4294 13.0982 19.7192 13.0982 22.0106Z" stroke="#D9D9D8" stroke-width="2" stroke-miterlimit="10"/>
<path d="M21.0993 24.0223C21.0993 25.5802 21.1014 27.1352 21.0988 28.6924C21.0967 29.9086 20.3185 30.8826 19.2675 30.9904C18.232 31.0994 17.3063 30.2709 17.1256 29.0719C17.1106 28.97 17.1023 28.8651 17.1023 28.7614C17.1013 25.592 17.0976 22.4214 17.1028 19.2521C17.1039 18.1007 17.8515 17.1727 18.8823 17.0178C19.821 16.8769 20.7524 17.5875 21.0201 18.6505C21.0776 18.8803 21.1003 19.113 21.0998 19.3522C21.0978 20.9095 21.0993 22.4668 21.0993 24.0223Z" stroke="#D9D9D8" stroke-width="2" stroke-miterlimit="10"/>
<path d="M5.0973 24.0017C5.0973 25.587 5.10506 27.1734 5.09472 28.7581C5.08799 29.8995 4.33939 30.8262 3.32849 30.9813C2.38639 31.1251 1.45723 30.4254 1.182 29.3624C1.13234 29.1702 1.10181 28.9745 1.10181 28.7735C1.10233 25.5829 1.09509 22.3929 1.10699 19.2023C1.11061 18.114 1.83748 17.1943 2.76923 17.0286C3.74495 16.8565 4.66687 17.4743 4.98556 18.5184C5.06833 18.789 5.09989 19.0702 5.09937 19.3585C5.09627 20.906 5.0973 22.4542 5.0973 24.0017Z" stroke="#D9D9D8" stroke-width="2" stroke-miterlimit="10"/>
<path d="M12.6908 7.64215C12.6266 7.82771 12.7545 7.91843 12.9053 8.01387C14.5542 9.05481 16.1998 10.1005 17.8442 11.1473C17.9927 11.2404 18.1093 11.2875 18.2828 11.1691C18.5319 10.9982 18.8339 10.9482 19.128 11.0071C19.2901 11.0395 19.355 10.9723 19.4357 10.858C20.9232 8.7308 22.4134 6.60474 23.9031 4.47986C24.3707 3.81182 24.8377 3.14201 25.3081 2.4781C25.3815 2.37383 25.4173 2.29725 25.353 2.15409C25.055 1.4943 25.2182 0.767354 25.7421 0.330831C26.2506 -0.0939102 26.9707 -0.110994 27.5048 0.287237C28.0281 0.678399 28.2397 1.41772 28.0048 2.04099C27.7585 2.69371 27.1419 3.07486 26.4463 2.97824C26.2898 2.95527 26.2347 3.03303 26.1641 3.13436C24.8911 4.9535 23.6165 6.77264 22.3418 8.59295C21.6649 9.55967 20.9908 10.5293 20.306 11.4907C20.2048 11.6327 20.1991 11.7364 20.2696 11.8949C20.5193 12.4569 20.3959 13.1172 19.9784 13.5502C19.5637 13.9814 18.9483 14.1111 18.4039 13.8848C17.8544 13.6569 17.495 13.1084 17.5132 12.4804C17.5183 12.2943 17.4699 12.1953 17.3147 12.0987C15.6486 11.0524 13.9866 9.99796 12.3274 8.93934C12.1886 8.8498 12.0924 8.82859 11.9372 8.9199C11.481 9.18559 11.0049 9.18618 10.5504 8.91578C10.4065 8.82918 10.3161 8.8445 10.1852 8.92697C8.5175 9.99089 6.84862 11.0501 5.17462 12.1028C5.03356 12.1918 4.97839 12.2807 4.98294 12.4586C5.00171 13.2834 4.42039 13.9361 3.63202 13.9962C2.89144 14.0533 2.20147 13.463 2.1116 12.6949C2.01661 11.8754 2.5183 11.1614 3.30155 11.0142C3.63714 10.9523 3.96079 11.01 4.25373 11.1927C4.36692 11.2633 4.44997 11.2781 4.57169 11.2015C6.26161 10.1223 7.95381 9.04715 9.6517 7.97852C9.79959 7.88721 9.80755 7.78353 9.80527 7.63213C9.79162 6.78265 10.4435 6.10106 11.2552 6.10519C12.0589 6.10754 12.6908 6.77558 12.6908 7.64215Z" fill="#D9D9D8"/>
</svg>
