<svg width="55" height="55" viewBox="0 0 55 55" fill="none" xmlns="http://www.w3.org/2000/svg">
<path d="M-134 3.00001C-134 -14.1208 -120.121 -28 -103 -28H165C182.121 -28 196 -14.1208 196 3V275C196 292.121 182.121 306 165 306H-103C-120.121 306 -134 292.121 -134 275V3.00001Z" fill="white"/>
<path d="M69 27C69 49.6437 50.6437 68 28 68C5.35633 68 -13 49.6437 -13 27C-13 4.35633 5.35633 -14 28 -14C50.6437 -14 69 4.35633 69 27Z" fill="white"/>
<path d="M27.4978 55C12.3118 55 0 42.6867 0 27.4993C0 12.3133 12.3133 0 27.4978 0C42.6882 0 54.9986 12.3133 54.9986 27.4993C55 42.6896 42.6882 55 27.4978 55Z" fill="#337CCC"/>
<path d="M23.3102 44.1231H30.0052V27.3605H34.6756L35.1727 21.748H30.0052C30.0052 21.748 30.0052 19.6527 30.0052 18.5501C30.0052 17.2264 30.271 16.7048 31.5514 16.7048C32.5788 16.7048 35.1727 16.7048 35.1727 16.7048V10.8783C35.1727 10.8783 31.3534 10.8783 30.5384 10.8783C25.5573 10.8783 23.3102 13.0734 23.3102 17.2712C23.3102 20.9286 23.3102 21.7465 23.3102 21.7465H19.8306V27.4314H23.3102V44.1231Z" fill="white"/>
</svg>
