<svg width="21" height="21" viewBox="0 0 21 21" fill="none" xmlns="http://www.w3.org/2000/svg">
<path d="M10.4996 20.0952C15.7987 20.0952 20.0945 15.7995 20.0945 10.5006C20.0945 5.2016 15.7987 0.905945 10.4996 0.905945C5.20055 0.905945 0.904785 5.2016 0.904785 10.5006C0.904785 15.7995 5.20055 20.0952 10.4996 20.0952Z" stroke="#999A9B" stroke-miterlimit="10" stroke-linecap="round"/>
<path d="M6.76909 11.3833C7.25695 11.3833 7.65243 10.9878 7.65243 10.5C7.65243 10.0121 7.25695 9.61667 6.76909 9.61667C6.28123 9.61667 5.88574 10.0121 5.88574 10.5C5.88574 10.9878 6.28123 11.3833 6.76909 11.3833Z" stroke="#999A9B" stroke-miterlimit="10" stroke-linecap="round"/>
<path d="M10.0796 11.3833C10.5675 11.3833 10.963 10.9878 10.963 10.5C10.963 10.0121 10.5675 9.61667 10.0796 9.61667C9.59178 9.61667 9.19629 10.0121 9.19629 10.5C9.19629 10.9878 9.59178 11.3833 10.0796 11.3833Z" stroke="#999A9B" stroke-miterlimit="10" stroke-linecap="round"/>
<path d="M13.6099 11.3833C14.0978 11.3833 14.4933 10.9878 14.4933 10.5C14.4933 10.0121 14.0978 9.61667 13.6099 9.61667C13.122 9.61667 12.7266 10.0121 12.7266 10.5C12.7266 10.9878 13.122 11.3833 13.6099 11.3833Z" stroke="#999A9B" stroke-miterlimit="10" stroke-linecap="round"/>
</svg>
