<svg width="39" height="39" viewBox="0 0 39 39" fill="none" xmlns="http://www.w3.org/2000/svg">
<path d="M19.029 38.062C8.52 38.062 0 29.54 0 19.03C0 8.52 8.521 0 19.029 0C29.541 0 38.06 8.521 38.06 19.03C38.061 29.541 29.541 38.062 19.029 38.062Z" fill="#3C7BBF"/>
<path d="M16.1312 30.534H20.7642V18.934H23.9952L24.3402 15.05H20.7642C20.7642 15.05 20.7642 13.6 20.7642 12.837C20.7642 11.921 20.9482 11.56 21.8332 11.56C22.5452 11.56 24.3402 11.56 24.3402 11.56V7.52802C24.3402 7.52802 21.6962 7.52802 21.1332 7.52802C17.6862 7.52802 16.1312 9.04701 16.1312 11.952C16.1312 14.483 16.1312 15.049 16.1312 15.049H13.7222V18.983H16.1312V30.534Z" fill="white"/>
</svg>
