<svg width="21" height="10" viewBox="0 0 21 10" fill="none" xmlns="http://www.w3.org/2000/svg">
<path d="M15.3632 7.0754L14.5525 9.52863H13.5112L16.1613 1.72791H17.3773L20.04 9.52863H18.9639L18.1301 7.0754H15.3632ZM17.9207 6.2879L17.1573 4.04216C16.9826 3.53357 16.8678 3.07033 16.752 2.61867H16.7288C16.613 3.08191 16.4856 3.55673 16.336 4.03058L15.5717 6.28693H17.9207V6.2879Z" fill="#999A9B"/>
<path d="M14 1L11 9.5" stroke="#999A9B" stroke-miterlimit="10" stroke-linecap="round" stroke-linejoin="round"/>
<path d="M0.787109 2.85315H9.67451" stroke="#999A9B" stroke-miterlimit="10" stroke-linecap="round" stroke-linejoin="round"/>
<path d="M1.81787 9.0258C1.81787 9.0258 4.0665 8.91095 6.26109 6.84762C8.45471 4.78235 8.38619 2.84641 8.38619 2.84641" stroke="#999A9B" stroke-miterlimit="10" stroke-linecap="round" stroke-linejoin="round"/>
<path d="M8.3874 9.0258C8.3874 9.0258 6.13781 8.91095 3.94419 6.84762C1.75056 4.78235 1.81908 2.84641 1.81908 2.84641" stroke="#999A9B" stroke-miterlimit="10" stroke-linecap="round" stroke-linejoin="round"/>
<path d="M5.23047 2.85317V1.55707" stroke="#999A9B" stroke-miterlimit="10" stroke-linecap="round" stroke-linejoin="round"/>
</svg>
