<svg width="21" height="11" viewBox="0 0 21 11" fill="none" xmlns="http://www.w3.org/2000/svg">
<path d="M15.3633 7.0754V6.5754H15.002L14.8886 6.91852L15.3633 7.0754ZM14.5527 9.52863V10.0286H14.914L15.0274 9.68551L14.5527 9.52863ZM13.5113 9.52863L13.0379 9.36779L12.8134 10.0286H13.5113V9.52863ZM16.1614 1.7279V1.2279H15.8032L15.688 1.56707L16.1614 1.7279ZM17.3774 1.7279L17.8506 1.56639L17.7351 1.2279H17.3774V1.7279ZM20.0401 9.52863V10.0286H20.7391L20.5133 9.36711L20.0401 9.52863ZM18.964 9.52863L18.4906 9.68953L18.6059 10.0286H18.964V9.52863ZM18.1302 7.0754L18.6036 6.91449L18.4883 6.5754H18.1302V7.0754ZM17.9208 6.2879L17.9206 6.7879L18.6189 6.78818L18.3942 6.12698L17.9208 6.2879ZM17.1574 4.04216L17.6308 3.88124L17.6303 3.87975L17.1574 4.04216ZM16.7521 2.61867L17.2364 2.49448L17.14 2.11867H16.7521V2.61867ZM16.7289 2.61867V2.11867H16.3385L16.2438 2.4974L16.7289 2.61867ZM16.3361 4.03058L16.8098 4.19104L16.8129 4.1811L16.3361 4.03058ZM15.5718 6.28693L15.0982 6.12651L14.8746 6.78664L15.5716 6.78693L15.5718 6.28693ZM14.4715 1.16641C14.5634 0.90601 14.4268 0.620411 14.1664 0.528505C13.906 0.436599 13.6204 0.57319 13.5285 0.83359L14.4715 1.16641ZM10.5285 9.33359C10.4366 9.59399 10.5732 9.87959 10.8336 9.9715C11.094 10.0634 11.3796 9.92681 11.4715 9.66641L10.5285 9.33359ZM0.787109 2.35315C0.510967 2.35315 0.287109 2.57701 0.287109 2.85315C0.287109 3.12929 0.510967 3.35315 0.787109 3.35315V2.35315ZM9.67451 3.35315C9.95065 3.35315 10.1745 3.12929 10.1745 2.85315C10.1745 2.57701 9.95065 2.35315 9.67451 2.35315V3.35315ZM1.79244 8.52644C1.51666 8.54053 1.30451 8.77551 1.3186 9.05129C1.33268 9.32708 1.56767 9.53923 1.84345 9.52514L1.79244 8.52644ZM6.26116 6.84761L6.60366 7.21189L6.60391 7.21166L6.26116 6.84761ZM8.88595 2.82872C8.87618 2.55275 8.64455 2.33695 8.36858 2.34671C8.09261 2.35648 7.87681 2.58812 7.88658 2.86409L8.88595 2.82872ZM8.36171 9.52514C8.6375 9.53922 8.87248 9.32707 8.88656 9.05128C8.90063 8.7755 8.68848 8.54052 8.4127 8.52644L8.36171 9.52514ZM3.94399 6.84761L3.60125 7.21166L3.60142 7.21181L3.94399 6.84761ZM2.31858 2.86409C2.32834 2.58812 2.11254 2.35648 1.83657 2.34671C1.5606 2.33695 1.32897 2.55275 1.3192 2.82872L2.31858 2.86409ZM4.73043 2.85316C4.73043 3.1293 4.95429 3.35316 5.23043 3.35316C5.50657 3.35316 5.73043 3.1293 5.73043 2.85316H4.73043ZM5.73043 1.55706C5.73043 1.28092 5.50657 1.05706 5.23043 1.05706C4.95429 1.05706 4.73043 1.28092 4.73043 1.55706H5.73043ZM14.8886 6.91852L14.0779 9.37175L15.0274 9.68551L15.8381 7.23228L14.8886 6.91852ZM14.5527 9.02863H13.5113V10.0286H14.5527V9.02863ZM13.9848 9.68946L16.6349 1.88874L15.688 1.56707L13.0379 9.36779L13.9848 9.68946ZM16.1614 2.2279H17.3774V1.2279H16.1614V2.2279ZM16.9042 1.88942L19.5669 9.69014L20.5133 9.36711L17.8506 1.56639L16.9042 1.88942ZM20.0401 9.02863H18.964V10.0286H20.0401V9.02863ZM19.4374 9.36772L18.6036 6.91449L17.6568 7.2363L18.4906 9.68953L19.4374 9.36772ZM18.1302 6.5754H15.3633V7.5754H18.1302V6.5754ZM18.3942 6.12698L17.6308 3.88124L16.684 4.20308L17.4474 6.44881L18.3942 6.12698ZM17.6303 3.87975C17.4634 3.39376 17.3535 2.95128 17.2364 2.49448L16.2677 2.74286C16.3822 3.18937 16.5021 3.67337 16.6845 4.20457L17.6303 3.87975ZM16.7521 2.11867H16.7289V3.11867H16.7521V2.11867ZM16.2438 2.4974C16.1293 2.95535 16.0047 3.41949 15.8593 3.88006L16.8129 4.1811C16.9667 3.69396 17.0968 3.20846 17.214 2.73994L16.2438 2.4974ZM15.8626 3.87016L15.0982 6.12651L16.0453 6.44735L16.8097 4.191L15.8626 3.87016ZM15.5716 6.78693L17.9206 6.7879L17.921 5.7879L15.572 5.78693L15.5716 6.78693ZM13.5285 0.83359L10.5285 9.33359L11.4715 9.66641L14.4715 1.16641L13.5285 0.83359ZM0.787109 3.35315H9.67451V2.35315H0.787109V3.35315ZM1.81795 9.02579C1.84345 9.52514 1.84367 9.52513 1.8439 9.52512C1.84398 9.52511 1.84422 9.5251 1.8444 9.52509C1.84475 9.52507 1.84513 9.52505 1.84555 9.52503C1.84639 9.52498 1.84737 9.52493 1.84849 9.52486C1.85072 9.52473 1.8535 9.52457 1.85682 9.52435C1.86346 9.52392 1.87226 9.5233 1.88315 9.52244C1.90494 9.52072 1.93509 9.51802 1.97304 9.51388C2.04893 9.50561 2.15611 9.49158 2.29 9.46808C2.55764 9.42112 2.9329 9.3362 3.37866 9.18345C4.27074 8.87778 5.44639 8.29994 6.60366 7.21189L5.91867 6.48333C4.88134 7.45862 3.83539 7.96987 3.05451 8.23745C2.66379 8.37133 2.33972 8.44408 2.11717 8.48313C2.00596 8.50264 1.92032 8.5137 1.86467 8.51977C1.83685 8.5228 1.81654 8.52459 1.80431 8.52555C1.7982 8.52604 1.79411 8.52632 1.7921 8.52645C1.7911 8.52651 1.79063 8.52654 1.79068 8.52654C1.79071 8.52653 1.79086 8.52653 1.79116 8.52651C1.79131 8.5265 1.79149 8.52649 1.7917 8.52648C1.79181 8.52647 1.79199 8.52647 1.79205 8.52646C1.79224 8.52645 1.79244 8.52644 1.81795 9.02579ZM6.60391 7.21166C7.76204 6.12128 8.33645 5.05125 8.61878 4.23619C8.75947 3.83002 8.82668 3.49001 8.8585 3.24576C8.87441 3.12365 8.88149 3.02543 8.88448 2.95476C8.88597 2.91942 8.88645 2.89095 8.8865 2.86979C8.88652 2.85922 8.88644 2.85047 8.88632 2.8436C8.88627 2.84017 8.8862 2.83721 8.88613 2.83473C8.8861 2.83349 8.88607 2.83236 8.88604 2.83136C8.88602 2.83086 8.88601 2.83039 8.88599 2.82995C8.88599 2.82973 8.88598 2.82942 8.88597 2.82931C8.88596 2.82901 8.88595 2.82872 8.38626 2.8464C7.88658 2.86409 7.88657 2.86381 7.88656 2.86354C7.88656 2.86346 7.88655 2.86319 7.88654 2.86303C7.88653 2.86271 7.88652 2.86241 7.88651 2.86215C7.8865 2.86162 7.88648 2.8612 7.88648 2.8609C7.88646 2.86029 7.88646 2.86014 7.88646 2.86043C7.88647 2.86102 7.88651 2.86339 7.8865 2.8675C7.88648 2.87572 7.88629 2.89085 7.88537 2.91248C7.88354 2.95575 7.87883 3.02491 7.86689 3.11656C7.84301 3.29985 7.79024 3.57289 7.67386 3.90888C7.44205 4.5781 6.9539 5.50867 5.91842 6.48357L6.60391 7.21166ZM8.38721 9.02579C8.4127 8.52644 8.4129 8.52645 8.41309 8.52646C8.41315 8.52646 8.41333 8.52647 8.41344 8.52648C8.41365 8.52649 8.41383 8.5265 8.41398 8.52651C8.41427 8.52652 8.41443 8.52653 8.41446 8.52654C8.41451 8.52654 8.41403 8.52651 8.41303 8.52645C8.41102 8.52632 8.40693 8.52604 8.40081 8.52555C8.38857 8.52459 8.36826 8.5228 8.34043 8.51977C8.28474 8.5137 8.19907 8.50264 8.08782 8.48313C7.86519 8.44407 7.54104 8.37133 7.15026 8.23744C6.36926 7.96987 5.32336 7.45863 4.28656 6.48341L3.60142 7.21181C4.75824 8.29993 5.93394 8.87778 6.82615 9.18346C7.27197 9.33621 7.64732 9.42113 7.91504 9.46809C8.04897 9.49158 8.15618 9.50561 8.23209 9.51388C8.27005 9.51802 8.30022 9.52072 8.322 9.52244C8.3329 9.5233 8.3417 9.52392 8.34834 9.52435C8.35166 9.52457 8.35444 9.52474 8.35667 9.52486C8.35779 9.52493 8.35877 9.52498 8.35961 9.52503C8.36003 9.52505 8.36041 9.52507 8.36077 9.52509C8.36094 9.5251 8.36118 9.52511 8.36127 9.52512C8.36149 9.52513 8.36171 9.52514 8.38721 9.02579ZM4.28673 6.48357C3.25125 5.50867 2.7631 4.5781 2.53129 3.90888C2.41491 3.57289 2.36215 3.29985 2.33827 3.11656C2.32632 3.02491 2.32161 2.95575 2.31978 2.91248C2.31887 2.89085 2.31867 2.87572 2.31865 2.8675C2.31864 2.86339 2.31868 2.86102 2.31869 2.86043C2.31869 2.86014 2.31869 2.86029 2.31868 2.8609C2.31867 2.8612 2.31866 2.86162 2.31864 2.86215C2.31863 2.86241 2.31862 2.86271 2.31861 2.86303C2.31861 2.86319 2.3186 2.86346 2.31859 2.86354C2.31858 2.86381 2.31858 2.86409 1.81889 2.8464C1.3192 2.82872 1.31919 2.82901 1.31918 2.82931C1.31918 2.82942 1.31917 2.82973 1.31916 2.82995C1.31914 2.83039 1.31913 2.83086 1.31911 2.83136C1.31908 2.83236 1.31905 2.83349 1.31902 2.83473C1.31895 2.83721 1.31889 2.84017 1.31883 2.8436C1.31871 2.85047 1.31863 2.85922 1.31866 2.86979C1.3187 2.89095 1.31918 2.91942 1.32068 2.95476C1.32367 3.02543 1.33074 3.12365 1.34665 3.24576C1.37847 3.49001 1.44568 3.83002 1.58637 4.23619C1.8687 5.05125 2.44311 6.12128 3.60125 7.21165L4.28673 6.48357ZM5.73043 2.85316V1.55706H4.73043V2.85316H5.73043Z" fill="#999A9B"/>
</svg>
