<svg width="32" height="28" viewBox="0 0 32 28" fill="none" xmlns="http://www.w3.org/2000/svg">
<path d="M11.0053 2.05394C9.77834 3.37733 9.1001 5.13485 9.1001 7.00365C9.10179 10.8607 12.0171 14 15.6005 14H15.6022C17.3355 14 18.9672 13.2713 20.1949 11.947C21.4236 10.6236 22.1001 8.86515 22.1001 6.99818C22.0984 3.1402 19.1822 0 15.6014 0C13.8656 0 12.2339 0.730553 11.0053 2.05394ZM20.3795 6.99909C20.3804 8.37173 19.8825 9.66319 18.979 10.6373C18.0764 11.6104 16.8774 12.1476 15.6031 12.1476H15.6014C12.9672 12.1476 10.8224 9.83922 10.8207 7.00182C10.8207 5.62736 11.3194 4.33498 12.2229 3.36091C13.1255 2.38866 14.3253 1.85238 15.6014 1.85238C18.2347 1.85238 20.3778 4.16078 20.3795 6.99909Z" fill="#D9D9D8"/>
<path d="M20.4777 16.0118H24.7356C27.6564 16.0118 30.0245 18.3799 30.0245 21.2988C30.0245 24.2205 27.6554 26.5887 24.7356 26.5877H16.7303C13.8077 26.5877 11.4423 24.2196 11.4414 21.2988C11.4414 20.3155 11.7099 19.3935 12.1773 18.6045" stroke="#D9D9D8" stroke-width="2" stroke-miterlimit="10" stroke-linecap="round"/>
<path d="M9.72105 26.5896H6.2889C3.36997 26.5887 1 24.2215 1 21.3007C1 18.3799 3.36905 16.0127 6.2889 16.0127H14.2951C17.2168 16.0118 19.584 18.3799 19.584 21.3007C19.584 22.0302 19.4365 22.7258 19.1689 23.3591" stroke="#D9D9D8" stroke-width="2" stroke-miterlimit="10" stroke-linecap="round"/>
</svg>
