<svg width="15" height="23" viewBox="0 0 15 23" fill="none" xmlns="http://www.w3.org/2000/svg">
<path d="M7.51703 21.0427L7.09906 21.3171C7.1915 21.4579 7.34861 21.5427 7.51703 21.5427C7.68545 21.5427 7.84256 21.4579 7.935 21.3171L7.51703 21.0427ZM13.5341 7.51703C13.5341 8.30572 13.166 9.51802 12.5556 10.9533C11.9544 12.3672 11.1491 13.9283 10.3385 15.3868C9.52882 16.8436 8.71848 18.1898 8.1102 19.1723C7.80619 19.6633 7.55296 20.063 7.37592 20.3396C7.2874 20.4779 7.21796 20.5854 7.17075 20.6582C7.14715 20.6946 7.12911 20.7223 7.11703 20.7408C7.11099 20.7501 7.10644 20.757 7.10343 20.7616C7.10192 20.7639 7.1008 20.7656 7.10007 20.7667C7.09971 20.7673 7.09944 20.7677 7.09927 20.768C7.09919 20.7681 7.09913 20.7682 7.09909 20.7682C7.09907 20.7683 7.09906 20.7683 7.51703 21.0427C7.935 21.3171 7.93504 21.317 7.93511 21.3169C7.93517 21.3168 7.93527 21.3167 7.93538 21.3165C7.93561 21.3162 7.93594 21.3157 7.93636 21.315C7.93721 21.3137 7.93845 21.3118 7.94008 21.3093C7.94333 21.3044 7.94813 21.297 7.95442 21.2874C7.967 21.2681 7.98556 21.2396 8.00969 21.2024C8.05795 21.1281 8.12851 21.0188 8.2182 20.8787C8.39756 20.5984 8.65347 20.1945 8.96043 19.6987C9.5741 18.7075 10.393 17.3472 11.2126 15.8726C12.0313 14.3995 12.8552 12.8042 13.4759 11.3446C14.0875 9.90637 14.5341 8.52808 14.5341 7.51703H13.5341ZM7.51703 21.0427C7.935 20.7683 7.93499 20.7683 7.93497 20.7682C7.93492 20.7682 7.93487 20.7681 7.93479 20.768C7.93462 20.7677 7.93435 20.7673 7.93399 20.7667C7.93326 20.7656 7.93214 20.7639 7.93063 20.7616C7.92762 20.757 7.92307 20.7501 7.91703 20.7408C7.90495 20.7223 7.88691 20.6946 7.86331 20.6582C7.8161 20.5854 7.74665 20.4779 7.65814 20.3396C7.4811 20.063 7.22787 19.6633 6.92386 19.1723C6.31558 18.1898 5.50524 16.8436 4.69555 15.3868C3.88498 13.9283 3.07968 12.3672 2.47841 10.9533C1.86807 9.51802 1.5 8.30572 1.5 7.51703H0.5C0.5 8.52808 0.946555 9.90637 1.55816 11.3446C2.17884 12.8042 3.00279 14.3995 3.82148 15.8726C4.64105 17.3472 5.45996 18.7075 6.07363 19.6987C6.38059 20.1945 6.6365 20.5984 6.81586 20.8787C6.90555 21.0188 6.97611 21.1281 7.02437 21.2024C7.0485 21.2396 7.06706 21.2681 7.07964 21.2874C7.08593 21.297 7.09072 21.3044 7.09398 21.3093C7.09561 21.3118 7.09685 21.3137 7.0977 21.315C7.09812 21.3157 7.09845 21.3162 7.09868 21.3165C7.09879 21.3167 7.09889 21.3168 7.09894 21.3169C7.09902 21.317 7.09906 21.3171 7.51703 21.0427ZM1.5 7.51703C1.5 4.19368 4.19368 1.5 7.51703 1.5V0.5C3.6414 0.5 0.5 3.6414 0.5 7.51703H1.5ZM7.51703 1.5C10.8404 1.5 13.5341 4.19368 13.5341 7.51703H14.5341C14.5341 3.6414 11.3927 0.5 7.51703 0.5V1.5ZM9.68634 7.41292C9.68634 8.61098 8.71512 9.58219 7.51706 9.58219V10.5822C9.2674 10.5822 10.6863 9.16326 10.6863 7.41292H9.68634ZM7.51706 9.58219C6.319 9.58219 5.34778 8.61098 5.34778 7.41292H4.34778C4.34778 9.16326 5.76671 10.5822 7.51706 10.5822V9.58219ZM5.34778 7.41292C5.34778 6.21486 6.319 5.24364 7.51706 5.24364V4.24364C5.76671 4.24364 4.34778 5.66257 4.34778 7.41292H5.34778ZM7.51706 5.24364C8.71512 5.24364 9.68634 6.21486 9.68634 7.41292H10.6863C10.6863 5.66257 9.2674 4.24364 7.51706 4.24364V5.24364ZM9.68634 21.2133C9.68634 21.0754 9.77837 21.0482 9.69073 21.1093C9.61761 21.1602 9.4792 21.2263 9.26318 21.29C8.83766 21.4154 8.22017 21.5 7.51706 21.5V22.5C8.28815 22.5 9.0053 22.4085 9.54587 22.2492C9.81289 22.1705 10.0654 22.0671 10.2624 21.9298C10.4449 21.8026 10.6863 21.5684 10.6863 21.2133H9.68634ZM7.51706 21.5C6.81395 21.5 6.19646 21.4154 5.77094 21.29C5.55491 21.2263 5.41651 21.1602 5.34339 21.1093C5.25574 21.0482 5.34778 21.0754 5.34778 21.2133H4.34778C4.34778 21.5684 4.5892 21.8026 4.7717 21.9298C4.96873 22.0671 5.22123 22.1705 5.48825 22.2492C6.02882 22.4085 6.74597 22.5 7.51706 22.5V21.5ZM5.34778 21.2133C5.34778 21.3512 5.25574 21.3784 5.34339 21.3173C5.41651 21.2664 5.55491 21.2003 5.77094 21.1367C6.19646 21.0113 6.81395 20.9266 7.51706 20.9266V19.9266C6.74597 19.9266 6.02882 20.0181 5.48825 20.1775C5.22123 20.2561 4.96873 20.3596 4.7717 20.4969C4.5892 20.624 4.34778 20.8582 4.34778 21.2133H5.34778ZM7.51706 20.9266C8.22017 20.9266 8.83766 21.0113 9.26318 21.1367C9.4792 21.2003 9.61761 21.2664 9.69073 21.3173C9.77837 21.3784 9.68634 21.3512 9.68634 21.2133H10.6863C10.6863 20.8582 10.4449 20.624 10.2624 20.4969C10.0654 20.3596 9.81289 20.2561 9.54587 20.1775C9.0053 20.0181 8.28815 19.9266 7.51706 19.9266V20.9266Z" fill="#999A9B"/>
</svg>
