<svg width="27" height="27" viewBox="0 0 27 27" fill="none" xmlns="http://www.w3.org/2000/svg">
<path d="M13.4989 27C6.04398 27 0 20.9556 0 13.4989C0 6.04437 6.04398 0 13.4989 0C20.956 0 26.9993 6.04437 26.9993 13.4989C27 20.9563 20.9546 27 13.4989 27Z" fill="#F98585"/>
<path fill-rule="evenodd" clip-rule="evenodd" d="M16.3301 7.27793C15.869 7.11833 15.3895 7.01264 14.9177 6.88212C14.1601 6.88212 13.401 6.88212 12.6427 6.88212C12.4533 7.11833 12.1596 7.07861 11.9113 7.14812C10.145 7.63899 8.83258 8.64485 8.17073 10.4026C7.54008 12.0774 7.88981 14.0075 9.01135 14.9538C9.20856 15.1205 9.49232 15.4348 9.67888 15.2695C9.87397 15.0999 9.95625 14.7183 9.84701 14.3849C9.73563 14.0473 9.60936 13.7089 9.54339 13.3606C9.08584 10.9822 10.0336 9.36981 12.2079 8.8151C12.803 8.66329 13.4117 8.62783 14.0246 8.66826C15.6817 8.77679 16.9572 9.7103 17.3616 11.107C17.7914 12.5945 17.0884 14.7921 15.9137 15.6121C15.7775 15.7079 15.6264 15.7894 15.471 15.8483C14.6581 16.1555 13.8614 16.0448 13.2095 15.5177C12.6094 15.0318 12.9165 14.3714 13.096 13.7635C13.2861 13.1194 13.4713 12.4739 13.6131 11.8178C13.7933 10.9793 13.5585 10.4672 12.9548 10.2437C12.332 10.0132 11.6226 10.2835 11.219 10.9162C10.7834 11.5993 10.7465 12.3526 10.9345 13.1045C11.0473 13.5543 11.0416 13.9714 10.9224 14.4055C10.4613 16.1044 9.99172 17.8011 9.54907 19.5043C9.30149 20.4584 9.24048 21.4238 9.53488 22.4729C9.92291 21.9367 10.2627 21.4664 10.6032 20.9953C11.2722 19.5362 11.829 18.0317 12.3157 16.491C13.411 17.2486 14.1509 17.489 15.1362 17.4181C17.4261 17.2521 19.3755 15.2666 19.7032 12.7669C20.0218 10.3203 18.6555 8.08588 16.3301 7.27793Z" fill="white"/>
</svg>
