<svg width="18" height="19" viewBox="0 0 18 19" fill="none" xmlns="http://www.w3.org/2000/svg">
<path d="M10.1944 0.858032H7.34737V3.70575H10.1944V0.858032Z" fill="white"/>
<path d="M10.0825 13.2767H8.98211V17.7859H10.0825V13.2767Z" fill="white"/>
<path d="M8.92694 5.06932H7.34737V12.0708H8.92694V5.06932Z" fill="white"/>
<path d="M16.8532 8.55232H14.5358V9.71174H16.8532V8.55232Z" fill="white"/>
<path d="M8.0741 12.7486H6.91464V16.111H8.0741V12.7486Z" fill="white"/>
<path d="M6.83897 12.7486H4.52164V13.9081H6.83897V12.7486Z" fill="white"/>
<path d="M13.2282 9.71174H6.68212V10.8712H13.2282V9.71174Z" fill="white"/>
<path d="M3.38268 9.04257H1.06456V13.6811H3.38268V9.04257Z" fill="white"/>
<path d="M6.27225 0.858032H0.57666V6.55427H6.27225V0.858032Z" stroke="#FDFEFF" stroke-miterlimit="10"/>
<path d="M17.4222 0.960497H11.7267V6.65594H17.4222V0.960497Z" stroke="#FDFEFF" stroke-miterlimit="10"/>
<path d="M17.4222 11.8533H11.7267V17.5487H17.4222V11.8533Z" stroke="#FDFEFF" stroke-miterlimit="10"/>
<path d="M10.1944 0.858032H7.34737V3.70575H10.1944V0.858032Z" stroke="#FDFEFF" stroke-miterlimit="10"/>
<path d="M10.0825 13.2767H8.98211V17.7859H10.0825V13.2767Z" stroke="#FDFEFF" stroke-miterlimit="10"/>
<path d="M8.92694 5.06932H7.34737V12.0708H8.92694V5.06932Z" stroke="#FDFEFF" stroke-miterlimit="10"/>
<path d="M16.8532 8.55232H14.5358V9.71174H16.8532V8.55232Z" stroke="#FDFEFF" stroke-miterlimit="10"/>
<path d="M8.0741 12.7486H6.91464V16.111H8.0741V12.7486Z" stroke="#FDFEFF" stroke-miterlimit="10"/>
<path d="M6.83897 12.7486H4.52164V13.9081H6.83897V12.7486Z" stroke="#FDFEFF" stroke-miterlimit="10"/>
<path d="M13.2282 9.71174H6.68212V10.8712H13.2282V9.71174Z" stroke="#FDFEFF" stroke-miterlimit="10"/>
<path d="M3.38268 9.04257H1.06456V13.6811H3.38268V9.04257Z" stroke="#FDFEFF" stroke-miterlimit="10"/>
<path d="M5.7008 15.2298H1.06456V17.5479H5.7008V15.2298Z" stroke="#FDFEFF" stroke-miterlimit="10"/>
</svg>
