<svg width="16" height="17" viewBox="0 0 16 17" fill="none" xmlns="http://www.w3.org/2000/svg">
<path d="M1.28099 12.1017L0.812281 11.9276C0.808217 11.9385 0.804538 11.9496 0.801249 11.9608L1.28099 12.1017ZM2.58357 10.5088L3.04478 10.7019L3.04493 10.7015L2.58357 10.5088ZM3.81409 5.54484L4.30192 5.65449C4.30324 5.64859 4.30446 5.64266 4.30557 5.63671L3.81409 5.54484ZM7.33493 2.80184L7.42181 3.29424C7.62778 3.25789 7.78937 3.09719 7.82684 2.89142C7.86432 2.68565 7.76975 2.4783 7.58981 2.37168L7.33493 2.80184ZM8.21681 1L8.21681 0.499995L8.21448 0.500005L8.21681 1ZM8.31714 1L8.31946 0.5H8.31714V1ZM9.20012 2.80184L8.94483 2.37192C8.76507 2.47867 8.6707 2.68598 8.70825 2.89165C8.7458 3.09731 8.90734 3.2579 9.11323 3.29423L9.20012 2.80184ZM12.721 5.54484L12.2295 5.63683C12.2306 5.64272 12.2318 5.64859 12.2331 5.65443L12.721 5.54484ZM13.9515 10.5088L14.4128 10.316L14.4127 10.3157L13.9515 10.5088ZM15.2541 12.1017L15.7338 11.9607C15.7305 11.9495 15.7269 11.9385 15.7228 11.9277L15.2541 12.1017ZM11.4371 15C11.4371 14.7239 11.2133 14.5 10.9371 14.5C10.661 14.5 10.4371 14.7239 10.4371 15H11.4371ZM7.5 15C7.5 14.7239 7.27614 14.5 7 14.5C6.72386 14.5 6.5 14.7239 6.5 15H7.5ZM6.38494 11.5809C6.38494 11.3978 6.48994 11.2815 6.56011 11.2308C6.63271 11.1784 6.71001 11.1593 6.7763 11.1593V12.1593C6.9019 12.1593 7.03351 12.1225 7.14561 12.0415C7.25527 11.9623 7.38494 11.8068 7.38494 11.5809H6.38494ZM6.7763 11.1593H6.66766V12.1593H6.7763V11.1593ZM6.66766 11.1593C6.73412 11.1593 6.8122 11.1785 6.88547 11.2318C6.95677 11.2837 7.05957 11.4001 7.05957 11.5809H6.05957C6.05957 11.8045 6.18676 11.9602 6.29727 12.0405C6.40976 12.1223 6.54188 12.1593 6.66766 12.1593V11.1593ZM7.05957 11.5809C7.05957 11.7624 6.95603 11.8792 6.88412 11.9311C6.81055 11.9843 6.73284 12.0028 6.66766 12.0028V11.0028C6.54317 11.0028 6.41141 11.039 6.29863 11.1204C6.1875 11.2007 6.05957 11.3565 6.05957 11.5809H7.05957ZM6.66766 12.0028H6.7763V11.0028H6.66766V12.0028ZM6.7763 12.0028C6.7123 12.0028 6.63483 11.9848 6.561 11.9316C6.48872 11.8796 6.38494 11.7626 6.38494 11.5809H7.38494C7.38494 11.3563 7.25677 11.2003 7.14513 11.12C7.03195 11.0385 6.90016 11.0028 6.7763 11.0028V12.0028ZM2.51151 12.49C2.26547 12.49 2.02389 12.4101 1.87318 12.3068C1.70214 12.1896 1.78442 12.1619 1.76072 12.2426L0.801249 11.9608C0.641751 12.5038 0.99951 12.9203 1.30779 13.1316C1.63641 13.3569 2.07799 13.49 2.51151 13.49V12.49ZM1.74969 12.2758C1.76333 12.2391 1.80386 12.1702 1.90146 12.0596C1.99659 11.9519 2.11377 11.8395 2.25488 11.7032C2.50628 11.4604 2.87279 11.1127 3.04478 10.7019L2.12235 10.3157C2.04547 10.4994 1.85214 10.7019 1.5602 10.9839C1.42964 11.1099 1.27927 11.2535 1.15191 11.3977C1.02701 11.5391 0.8901 11.7181 0.812281 11.9276L1.74969 12.2758ZM3.04493 10.7015C3.12415 10.5119 3.24149 10.086 3.3648 9.60707C3.49298 9.10924 3.63989 8.50373 3.77846 7.91923C3.91714 7.33426 4.04798 6.76818 4.14412 6.3485C4.19219 6.13861 4.23162 5.96523 4.25903 5.84427C4.27274 5.78379 4.28345 5.7364 4.29073 5.70411C4.29438 5.68797 4.29717 5.67559 4.29905 5.66724C4.29999 5.66306 4.3007 5.65989 4.30118 5.65776C4.30142 5.65669 4.3016 5.65588 4.30173 5.65534C4.30179 5.65506 4.30183 5.65486 4.30187 5.65472C4.30188 5.65465 4.30189 5.65459 4.3019 5.65455C4.30191 5.65451 4.30192 5.65449 3.81409 5.54484C3.32626 5.43518 3.32626 5.43519 3.32625 5.43522C3.32625 5.43525 3.32624 5.43529 3.32622 5.43535C3.32619 5.43548 3.32615 5.43567 3.32609 5.43593C3.32598 5.43644 3.3258 5.43722 3.32557 5.43825C3.3251 5.44032 3.32441 5.44343 3.32348 5.44754C3.32163 5.45575 3.31887 5.46799 3.31526 5.48399C3.30804 5.516 3.2974 5.56307 3.28377 5.62323C3.2565 5.74355 3.21725 5.91618 3.16936 6.12522C3.07357 6.54339 2.94334 7.10684 2.80543 7.68855C2.66741 8.27074 2.52221 8.86906 2.39639 9.35771C2.2657 9.86529 2.16715 10.2085 2.1222 10.3161L3.04493 10.7015ZM3.81409 5.54484C4.30557 5.63671 4.30552 5.63702 4.30546 5.63733C4.30544 5.63741 4.30539 5.63771 4.30535 5.63789C4.30528 5.63825 4.30522 5.63858 4.30517 5.63887C4.30505 5.63946 4.30496 5.63992 4.30489 5.64026C4.30476 5.64094 4.30472 5.64111 4.30479 5.6408C4.30492 5.64017 4.30547 5.63759 4.30649 5.63318C4.30854 5.62435 4.3125 5.60823 4.31888 5.5857C4.33165 5.54059 4.35401 5.47023 4.39001 5.38163C4.46209 5.20422 4.58789 4.95594 4.79917 4.6906C5.21449 4.16897 5.98644 3.54749 7.42181 3.29424L7.24806 2.30945C5.57276 2.60503 4.58428 3.35505 4.01685 4.06771C3.73675 4.41951 3.56559 4.75407 3.46355 5.00522C3.41249 5.1309 3.37851 5.23624 3.3567 5.31327C3.34579 5.35181 3.33789 5.38336 3.33242 5.40694C3.32968 5.41873 3.32754 5.42855 3.32593 5.43625C3.32513 5.44011 3.32445 5.44343 3.3239 5.44622C3.32362 5.44762 3.32338 5.44888 3.32316 5.45C3.32306 5.45056 3.32295 5.45109 3.32286 5.45158C3.32281 5.45183 3.32275 5.45217 3.32273 5.4523C3.32266 5.45263 3.3226 5.45296 3.81409 5.54484ZM7.58981 2.37168C7.37021 2.24156 7.31501 2.10162 7.31501 2.01801H6.31501C6.31501 2.56932 6.66999 2.98902 7.08005 3.232L7.58981 2.37168ZM7.31501 2.01801C7.31501 1.93807 7.3587 1.82116 7.51896 1.70488C7.67869 1.58899 7.9245 1.50136 8.21913 1.49999L8.21448 0.500005C7.73422 0.502238 7.27913 0.643396 6.93169 0.895496C6.58477 1.14721 6.31501 1.53751 6.31501 2.01801H7.31501ZM8.21681 1.5H8.31714V0.5H8.21681V1.5ZM8.31481 1.49999C8.60979 1.50137 8.85575 1.58903 9.01552 1.70492C9.17581 1.82119 9.21949 1.93809 9.21949 2.01801H10.2195C10.2195 1.53749 9.94971 1.14718 9.60269 0.895458C9.25515 0.643357 8.79993 0.502238 8.31946 0.500005L8.31481 1.49999ZM9.21949 2.01801C9.21949 2.10156 9.16445 2.24152 8.94483 2.37192L9.4554 3.23176C9.86546 2.98827 10.2195 2.56857 10.2195 2.01801H9.21949ZM9.11323 3.29423C10.5483 3.54748 11.3203 4.16895 11.7357 4.69062C11.947 4.95599 12.0729 5.20429 12.145 5.38171C12.181 5.47032 12.2034 5.54069 12.2162 5.5858C12.2226 5.60833 12.2265 5.62446 12.2286 5.63329C12.2296 5.6377 12.2302 5.64028 12.2303 5.64091C12.2304 5.64123 12.2303 5.64106 12.2302 5.64038C12.2301 5.64004 12.23 5.63958 12.2299 5.63899C12.2299 5.63869 12.2298 5.63837 12.2297 5.63801C12.2297 5.63783 12.2296 5.63753 12.2296 5.63745C12.2296 5.63714 12.2295 5.63683 12.721 5.54484C13.2124 5.45284 13.2124 5.45251 13.2123 5.45218C13.2123 5.45205 13.2122 5.45171 13.2122 5.45146C13.2121 5.45097 13.212 5.45044 13.2119 5.44988C13.2117 5.44876 13.2114 5.4475 13.2111 5.44611C13.2106 5.44332 13.2099 5.43999 13.2091 5.43614C13.2075 5.42843 13.2053 5.41862 13.2026 5.40683C13.1971 5.38325 13.1892 5.3517 13.1783 5.31316C13.1565 5.23614 13.1225 5.13081 13.0714 5.00514C12.9693 4.754 12.7981 4.41946 12.518 4.06768C11.9505 3.35507 10.962 2.60504 9.28701 2.30945L9.11323 3.29423ZM12.721 5.54484C12.2331 5.65443 12.2331 5.65446 12.2331 5.6545C12.2331 5.65453 12.2332 5.65459 12.2332 5.65466C12.2332 5.6548 12.2333 5.655 12.2333 5.65528C12.2334 5.65582 12.2336 5.65663 12.2339 5.6577C12.2343 5.65984 12.2351 5.66301 12.236 5.66718C12.2379 5.67554 12.2407 5.68791 12.2443 5.70406C12.2516 5.73635 12.2623 5.78373 12.276 5.84421C12.3034 5.96517 12.3428 6.13856 12.3908 6.34845C12.4869 6.76814 12.6177 7.33422 12.7564 7.9192C12.8949 8.50371 13.0418 9.10924 13.17 9.60709C13.2933 10.0859 13.4108 10.5121 13.4903 10.7019L14.4127 10.3157C14.3677 10.2083 14.2692 9.86533 14.1384 9.35769C14.0126 8.86906 13.8674 8.27076 13.7294 7.68858C13.5915 7.10688 13.4614 6.54343 13.3656 6.12527C13.3178 5.91623 13.2785 5.7436 13.2513 5.62328C13.2377 5.56313 13.227 5.51605 13.2198 5.48405C13.2162 5.46805 13.2134 5.45581 13.2116 5.44759C13.2107 5.44348 13.21 5.44038 13.2095 5.43831C13.2093 5.43728 13.2091 5.4365 13.209 5.43599C13.2089 5.43573 13.2089 5.43554 13.2088 5.43541C13.2088 5.43535 13.2088 5.43531 13.2088 5.43528C13.2088 5.43525 13.2088 5.43524 12.721 5.54484ZM13.4902 10.7016C13.6619 11.1125 14.0287 11.4602 14.28 11.7029C14.4211 11.8392 14.5384 11.9517 14.6335 12.0594C14.7311 12.1699 14.7717 12.2389 14.7853 12.2757L15.7228 11.9277C15.645 11.718 15.508 11.539 15.3831 11.3975C15.2556 11.2532 15.1052 11.1096 14.9746 10.9835C14.6825 10.7015 14.4894 10.4992 14.4128 10.316L13.4902 10.7016ZM14.7744 12.2427C14.7505 12.1616 14.8331 12.1893 14.6618 12.3067C14.5111 12.4101 14.2695 12.49 14.0235 12.49V13.49C14.4572 13.49 14.8988 13.3567 15.2273 13.1314C15.5354 12.9202 15.8934 12.5037 15.7338 11.9607L14.7744 12.2427ZM10.4371 15C10.4371 14.9741 10.4443 15.0887 10.1391 15.2396C9.8654 15.3749 9.45232 15.4728 8.96884 15.4728V16.4728C9.57232 16.4728 10.1434 16.3529 10.5821 16.1361C10.9893 15.9349 11.4371 15.5631 11.4371 15H10.4371ZM8.96884 15.4728C8.48505 15.4728 8.07182 15.3748 7.7981 15.2396C7.49277 15.0887 7.5 14.9741 7.5 15H6.5C6.5 15.5631 6.94789 15.9349 7.3551 16.1361C7.79392 16.3529 8.36511 16.4728 8.96884 16.4728V15.4728ZM14.0235 12.49H2.51151V13.49H14.0235V12.49Z" fill="#999A9B"/>
</svg>
