<svg width="27" height="27" viewBox="0 0 27 27" fill="none" xmlns="http://www.w3.org/2000/svg">
<path d="M13.4989 27.0007C6.04398 27.0007 0 20.9555 0 13.4993C0 6.04382 6.04398 0 13.4989 0C20.956 0 26.9993 6.04453 26.9993 13.4993C27 20.9569 20.9546 27.0007 13.4989 27.0007Z" fill="#515151"/>
<path fill-rule="evenodd" clip-rule="evenodd" d="M19.7457 8.73305C18.5496 8.53372 17.6409 7.83215 17.0734 6.82059C16.6414 6.05093 16.1101 5.81045 15.3042 5.93672C15.124 5.96509 14.9325 5.9658 14.753 5.93672C14.1834 5.8445 14.0316 6.0637 14.0422 6.63332C14.0791 8.6841 14.0564 10.7363 14.0557 12.7885C14.0557 13.6454 14.0954 14.5052 14.0408 15.36C13.9599 16.6439 12.9689 17.4767 11.692 17.4072C10.5173 17.3427 9.64542 16.4134 9.65322 15.233C9.66173 14.0186 10.5378 13.0815 11.8105 13.0999C12.5929 13.1113 12.8561 12.8673 12.7454 12.1224C12.705 11.8536 12.7128 11.5691 12.7447 11.2974C12.8079 10.7555 12.6412 10.559 12.046 10.5575C9.39359 10.5505 7.24769 12.548 7.16824 15.1628C7.09233 17.6768 9.22333 19.8737 11.7814 19.9134C14.3955 19.9553 16.4768 17.8896 16.5009 15.2089C16.5158 13.4383 16.5031 11.667 16.5031 9.80562C17.006 10.1263 17.3962 10.4192 17.8225 10.6384C19.5229 11.5116 19.8883 11.3194 20.1479 9.46086C20.1514 9.43036 20.1536 9.39986 20.1593 9.37006C20.2373 9.01751 20.1663 8.80257 19.7457 8.73305Z" fill="#FEFEFE"/>
</svg>
