<svg width="27" height="28" viewBox="0 0 27 28" fill="none" xmlns="http://www.w3.org/2000/svg">
<path d="M13.4989 27.9064C6.04398 27.9064 0 21.861 0 14.4046C0 6.94892 6.04398 0.904938 13.4989 0.904938C20.956 0.904938 26.9993 6.94963 26.9993 14.4046C27 21.8624 20.9546 27.9064 13.4989 27.9064Z" fill="#C1A6DD"/>
<path d="M20.5155 9.20123C20.5134 9.06786 20.4949 8.94372 20.3793 8.85717C17.3438 8.88058 14.3091 8.90399 11.275 8.92811C11.0977 9.01678 10.9274 9.10759 10.7848 9.25443C10.2052 9.85244 9.62 10.4462 9.03192 11.035C8.86025 11.2074 8.77441 11.3911 8.77725 11.6394C8.79711 14.2861 8.81485 16.9328 8.84393 19.5803C8.84819 20.0087 8.92835 20.0818 9.3554 20.0868C9.99882 20.0939 10.6437 20.074 11.2885 20.079C11.6212 20.0818 11.6907 20.1506 11.6999 20.4812C11.7134 20.9565 11.7028 21.4325 11.7184 21.9085C11.7226 22.044 11.7084 22.1944 11.8673 22.2689C12.088 22.2788 12.2369 22.1504 12.3781 22.0078C12.935 21.4431 13.4954 20.8813 14.0459 20.3095C14.2246 20.1237 14.4211 20.0407 14.6779 20.0442C15.0943 20.0499 15.5108 20.0414 15.9272 20.035C16.1173 20.0322 16.2684 19.9733 16.4039 19.8364C17.7276 18.4963 19.0492 17.152 20.3701 15.8092C20.5041 15.6737 20.5659 15.5212 20.5644 15.331C20.5524 13.2866 20.5346 11.2436 20.5155 9.20123ZM19.472 14.8707C19.4734 15.0246 19.4244 15.1289 19.3202 15.2331C18.7803 15.7737 18.2447 16.3171 17.7127 16.8654C17.6084 16.974 17.4999 17.0208 17.3495 17.0194C16.8536 17.0151 16.3585 17.0293 15.8619 17.0258C15.7108 17.0244 15.603 17.0719 15.498 17.1804C15.0865 17.6096 14.6666 18.0317 14.2466 18.4531C14.1814 18.519 14.1345 18.6162 13.987 18.634C13.9842 18.3133 13.9813 17.9998 13.9785 17.6869C13.9742 17.0428 13.9742 17.0428 13.3173 17.0485C12.9109 17.0513 12.5037 17.0421 12.0979 17.0627C11.8695 17.074 11.817 16.9931 11.8148 16.7754C11.8056 14.5642 11.7879 12.353 11.7652 10.1419C11.7624 9.93544 11.8184 9.87231 12.0284 9.87089C14.4077 9.85883 16.7877 9.84109 19.1669 9.81555C19.3776 9.81343 19.4337 9.87443 19.4337 10.0809C19.4393 11.6777 19.4542 13.2745 19.472 14.8707Z" fill="#FEFEFE"/>
<path fill-rule="evenodd" clip-rule="evenodd" d="M18.0177 12.9461C18.022 13.332 18.0135 13.7193 18.0319 14.1052C18.0419 14.3195 17.9603 14.3698 17.7602 14.372C17.0771 14.3805 17.0771 14.3868 17.0714 13.698C17.0657 13.0546 17.0693 12.4112 17.0515 11.7678C17.0466 11.5571 17.1175 11.5011 17.3218 11.5004C18.0078 11.4961 18.0078 11.4883 18.0135 12.1736C18.0149 12.4318 18.0163 12.6893 18.0177 12.9461Z" fill="#FEFEFE"/>
<path fill-rule="evenodd" clip-rule="evenodd" d="M14.4353 12.9794C14.4325 12.5744 14.4353 12.1693 14.4233 11.7642C14.4183 11.5869 14.4779 11.528 14.6595 11.5216C15.376 11.4989 15.376 11.4925 15.3809 12.1941C15.3859 12.8361 15.3838 13.4781 15.3987 14.1201C15.4044 14.3244 15.3419 14.3911 15.1334 14.3932C14.4467 14.4003 14.4467 14.4081 14.441 13.7207C14.4389 13.4732 14.4382 13.227 14.4353 12.9794Z" fill="#FEFEFE"/>
</svg>
