<svg width="14" height="16" viewBox="0 0 14 16" fill="none" xmlns="http://www.w3.org/2000/svg">
<path d="M7.21316 7.70641C9.06176 7.70641 10.5604 6.20782 10.5604 4.35922C10.5604 2.51061 9.06176 1.01202 7.21316 1.01202C5.36456 1.01202 3.86597 2.51061 3.86597 4.35922C3.86597 6.20782 5.36456 7.70641 7.21316 7.70641Z" stroke="#999A9B" stroke-miterlimit="10" stroke-linecap="round" stroke-linejoin="round"/>
<path d="M7.40948 14.5149H1.00232C1.00232 14.5149 0.92459 12.5769 1.66873 10.9198C2.41286 9.26284 3.73762 8.42344 3.73762 8.42344C3.73762 8.42344 4.80405 10.3193 7.26729 10.3193H7.21562C9.67886 10.3193 10.7453 8.42344 10.7453 8.42344C10.7453 8.42344 12.07 9.26284 12.8142 10.9198C13.5583 12.5769 13.4806 14.5149 13.4806 14.5149H7.07438H7.40948Z" stroke="#999A9B" stroke-miterlimit="10" stroke-linecap="round" stroke-linejoin="round"/>
</svg>
