<svg width="37" height="31" viewBox="0 0 37 31" fill="none" xmlns="http://www.w3.org/2000/svg">
<path d="M29.0993 25.9372C29.0993 27.0763 28.1498 28 26.9805 28H11.219C10.0489 28 9.1001 27.0763 9.1001 25.9372V5.06283C9.1001 3.92369 10.0489 3 11.219 3H26.9812C28.1506 3 29.1001 3.92369 29.1001 5.06283L29.0993 25.9372Z" fill="white"/>
<path d="M35.0994 27.9372C35.0994 29.0763 34.1973 30 33.0865 30H18.113C17.0014 30 16.1001 29.0763 16.1001 27.9372V7.06277C16.1001 5.92366 17.0014 5 18.113 5H33.0872C34.198 5 35.1001 5.92366 35.1001 7.06277L35.0994 27.9372Z" fill="white"/>
<path d="M20.1001 23.0197C20.1001 24.1133 19.1987 25 18.0871 25H3.11311C2.00148 25 1.1001 24.1133 1.1001 23.0197V2.98032C1.1001 1.88674 2.00148 1 3.11311 1H18.0871C19.1987 1 20.1001 1.88674 20.1001 2.98032V23.0197Z" stroke="#D9D9D8" stroke-width="2" stroke-miterlimit="10"/>
<path d="M29.0993 25.9372C29.0993 27.0763 28.1498 28 26.9805 28H11.219C10.0489 28 9.1001 27.0763 9.1001 25.9372V5.06283C9.1001 3.92369 10.0489 3 11.219 3H26.9812C28.1506 3 29.1001 3.92369 29.1001 5.06283L29.0993 25.9372Z" stroke="#D9D9D8" stroke-width="2" stroke-miterlimit="10"/>
<path d="M35.0994 27.9372C35.0994 29.0763 34.1973 30 33.0865 30H18.113C17.0014 30 16.1001 29.0763 16.1001 27.9372V7.06277C16.1001 5.92366 17.0014 5 18.113 5H33.0872C34.198 5 35.1001 5.92366 35.1001 7.06277L35.0994 27.9372Z" stroke="#D9D9D8" stroke-width="2" stroke-miterlimit="10"/>
</svg>
