<svg width="23" height="23" viewBox="0 0 23 23" fill="none" xmlns="http://www.w3.org/2000/svg">
<path d="M11.6748 22.124C5.90503 22.124 1.22754 17.4458 1.22754 11.6753M11.6748 22.124C17.4468 22.124 22.1235 17.4465 22.1235 11.6753M11.6748 22.124V1.22728M11.6748 22.124C11.6748 22.124 6.74367 18.4483 6.74367 12.0346C6.74367 5.62092 11.6748 1.22728 11.6748 1.22728M1.22754 11.6753C1.22754 5.90549 5.90503 1.22728 11.6748 1.22728M1.22754 11.6753H22.1235M11.6748 1.22728C17.446 1.22728 22.1235 5.90549 22.1235 11.6753M2.69715 5.98526C2.69715 5.98526 6.78034 8.1562 12.147 8.1562C17.5136 8.1562 20.654 5.98526 20.654 5.98526M2.69715 16.5698C2.69715 16.5698 6.78034 14.9687 12.147 14.9687C17.5136 14.9687 20.654 16.5698 20.654 16.5698M11.8926 22.1233C11.8926 22.1233 16.8238 17.7296 16.8238 11.316C16.8238 4.9023 11.8926 1.22656 11.8926 1.22656" stroke="#999A9B" stroke-miterlimit="10"/>
</svg>
