<svg width="20" height="16" viewBox="0 0 20 16" fill="none" xmlns="http://www.w3.org/2000/svg">
<path d="M8.72024 5.22828L9.0738 4.87473C8.9308 4.73173 8.71574 4.68895 8.5289 4.76634C8.34207 4.84373 8.22024 5.02605 8.22024 5.22828H8.72024ZM11.5265 8.03453L11.88 8.38808C12.0753 8.19282 12.0753 7.87624 11.88 7.68097L11.5265 8.03453ZM8.72024 10.8408H8.22024C8.22024 11.043 8.34207 11.2253 8.5289 11.3027C8.71574 11.3801 8.9308 11.3373 9.0738 11.1943L8.72024 10.8408ZM18.7022 8.03535C18.7022 11.462 15.9244 14.2398 12.4978 14.2398V15.2398C16.4767 15.2398 19.7022 12.0143 19.7022 8.03535H18.7022ZM12.4978 14.2398H7.57164V15.2398H12.4978V14.2398ZM7.57164 14.2398C4.14498 14.2398 1.36719 11.462 1.36719 8.03535H0.367188C0.367188 12.0143 3.59269 15.2398 7.57164 15.2398V14.2398ZM1.36719 8.03535C1.36719 4.60783 4.14502 1.83008 7.57164 1.83008V0.830078C3.59265 0.830078 0.367188 4.05562 0.367188 8.03535H1.36719ZM7.57164 1.83008H12.4978V0.830078H7.57164V1.83008ZM12.4978 1.83008C15.9243 1.83008 18.7022 4.60861 18.7022 8.03535H19.7022C19.7022 4.05649 16.4768 0.830078 12.4978 0.830078V1.83008ZM8.36669 5.58183L11.1729 8.38808L11.88 7.68097L9.0738 4.87473L8.36669 5.58183ZM11.1729 7.68097L8.36669 10.4872L9.0738 11.1943L11.88 8.38808L11.1729 7.68097ZM9.22024 10.8408V5.22828H8.22024V10.8408H9.22024Z" fill="#999A9B"/>
</svg>
